# xmcd CD database file
#
# Track frame offsets:
#	187
#	14537
#	26537
#	42414
#	55142
#	66279
#	76072
#	88652
#	104334
#	114017
#	129227
#	142959
#
# Disc length: 2045 seconds
#
# Revision: 3
# Processed by: cddbd v1.5.1PL0 Copyright (c) Steve Scherf et al.
# Submitted via: jetAudio 5
#
DISCID=9107fb0c
DTITLE=Sonny Boy Williamson II - More Real Folk Blues
DYEAR=1900
DGENRE=
TTITLE0=Help Me
TTITLE1=Bye Bye Bird
TTITLE2=Nine Below Zero
TTITLE3=The Hunt
TTITLE4=Stop Right Now
TTITLE5=She's My Baby
TTITLE6=The Goat
TTITLE7=Decoration Day
TTITLE8=Trying To Get Back On My Feet
TTITLE9=My Younger Days
TTITLE10=Close To Me
TTITLE11=Somebody Help Me
EXTD=CHD 9277Submitted 7/23/97[Jmccoy@efn.org]
EXTT0=
EXTT1=
EXTT2=
EXTT3=
EXTT4=
EXTT5=
EXTT6=
EXTT7=
EXTT8=
EXTT9=
EXTT10=
EXTT11=
PLAYORDER=
